<?xml version="1.0" encoding="UTF-8"?>
<svg version="1.1" viewBox="0 0 2048 768" width="500" height="200" xmlns="http://www.w3.org/2000/svg">
<path transform="translate(1045,263)" d="m0 0h20l22 3 20 6 19 9 14 10 12 12 10 15 4-2 7-8 14-14 16-12 16-9 12-5 17-4 9-1h19l18 2 19 5 19 8 14 9 10 8 8 8 9 13 6 12 5 17 2 12 1 14v211l-1 1h-106l-1-1-1-186-3-12-4-9-7-11-9-7-12-5-11-2h-14l-11 2-10 5-9 8-8 14-3 9-1 7-1 188h-107l-1-1v-173l-1-16-4-13-6-11-7-8-10-6-7-3-12-2h-14l-10 2-9 4-9 7-7 10-4 8-2 9-1 44-1 149h-107v-310l1-1h95l11 1v31l7-4 7-7 15-11 14-8 11-5 13-4z" fill="#38B2FE"/>
<path transform="translate(1687,62)" d="m0 0h106l2 2v518l-1 1-104 1-2-3 1-32-10 8-11 10-18 11-17 7-19 5-12 2h-36l-18-3-17-5-18-8-14-9-14-11-13-13-11-14-10-16-9-19-6-19-4-19-2-21v-15l3-26 4-17 5-15 10-21 12-18 9-11 16-16 18-13 16-8 16-6 17-4 18-2h22l24 3 21 6 21 10 12 8 12 10 2 1-1-4zm-82 293-13 3-14 7-10 8-8 8-8 13-5 14-2 10v21l3 14 5 12 7 11 10 10 13 8 10 4 16 3h16l16-3 11-5 10-6 10-9 8-11 5-10 4-15 1-17-2-16-5-14-7-12-9-10-10-8-12-6-9-3-6-1z" fill="#38B2FE"/>
<path transform="translate(455,62)" d="m0 0h107l1 242 10-9 16-12 17-10 16-6 14-3 9-1h17l24 3 17 4 19 7 19 10 14 10 9 9 9 12 8 15 5 15 2 10 1 10v215h-107l-1-8-1-179-3-12-8-15-10-11-10-6-13-4h-20l-13 4-13 7-13 12-7 10-5 11-2 13-1 178h-107l-1-2v-500z" fill="#38B2FE"/>
<path transform="translate(161,263)" d="m0 0h21l20 2 20 5 15 6 15 8 11 8 10 8 2 1-1-2v-27h55l52 1 1 2v307l-1 1h-106v-17l1-17-6 4-9 9-15 11-16 8-16 6-25 5h-36l-18-3-17-5-18-8-16-10-13-11-14-14-12-16-10-17-8-19-6-21-3-18-1-15v-14l2-21 4-20 7-21 8-16 9-15 11-14 18-18 15-11 16-9 18-7 18-4zm31 92-13 3-14 7-9 7-10 10-8 14-5 15-1 5v24l4 16 8 16 9 10 8 7 16 8 12 3 7 1h16l15-3 12-5 10-6 10-9 8-11 6-13 3-13 1-15-2-16-5-15-8-13-9-10-13-9-11-5-12-3z" fill="#38B2FE"/>
<path transform="translate(1925,454)" d="m0 0h24l15 4 11 6 10 8 10 11 8 15 3 10 1 7v16l-4 16-7 14-8 10-7 7-11 7-13 5-9 2h-24l-13-4-10-5-9-7-10-10-8-13-5-14-1-6v-19l4-16 6-12 8-10 8-8 14-9 12-4z" fill="#38B2FE"/>
</svg>
