<?xml version="1.0" encoding="UTF-8"?>
<svg version="1.1" xmlns="http://www.w3.org/2000/svg" width="400" height="400">
<path d="M0 0 C132 0 264 0 400 0 C400 132 400 264 400 400 C268 400 136 400 0 400 C0 268 0 136 0 0 Z " fill="#FEFEFE" transform="translate(0,0)"/>
<path d="M0 0 C5.61 0 11.22 0 17 0 C17 28.05 17 56.1 17 85 C11.39 85 5.78 85 0 85 C-0.33 83.35 -0.66 81.7 -1 80 C-1.54269531 80.34933594 -2.08539063 80.69867188 -2.64453125 81.05859375 C-3.35996094 81.51363281 -4.07539063 81.96867187 -4.8125 82.4375 C-5.52019531 82.88996094 -6.22789062 83.34242188 -6.95703125 83.80859375 C-12.01665832 86.75923668 -17.31740973 86.6396633 -23 86 C-30.67884242 83.65246817 -34.7227942 79.6409248 -39 73 C-39.495 78.94 -39.495 78.94 -40 85 C-45.61 85 -51.22 85 -57 85 C-57.04898438 82.73640625 -57.09796875 80.4728125 -57.1484375 78.140625 C-57.20248207 75.94296791 -57.25977579 73.74541782 -57.31738281 71.54785156 C-57.35561266 70.02319342 -57.390476 68.49844693 -57.421875 66.97363281 C-57.46765662 64.77897619 -57.52562766 62.5849246 -57.5859375 60.390625 C-57.59748871 59.7113092 -57.60903992 59.03199341 -57.62094116 58.33209229 C-57.73158878 54.76613196 -57.95099026 51.98385337 -60 49 C-62.34102859 47.82948571 -63.89352953 47.8007754 -66.5 47.75 C-67.69109375 47.71132812 -67.69109375 47.71132812 -68.90625 47.671875 C-69.5971875 47.78015625 -70.288125 47.8884375 -71 48 C-73.43775269 51.65662904 -73.34686544 54.49415429 -73.4140625 58.73046875 C-73.43342865 59.48088943 -73.4527948 60.23131012 -73.4727478 61.00447083 C-73.53247459 63.39869867 -73.57890065 65.79297477 -73.625 68.1875 C-73.6631862 69.8118698 -73.70223831 71.43621948 -73.7421875 73.06054688 C-73.83979925 77.04025928 -73.91941976 81.01976038 -74 85 C-79.94 85 -85.88 85 -92 85 C-92.05607422 81.37064453 -92.05607422 81.37064453 -92.11328125 77.66796875 C-92.15949252 75.32469642 -92.21072743 72.9815841 -92.26245117 70.63842773 C-92.29570536 69.00994591 -92.32373584 67.38134869 -92.34643555 65.75268555 C-92.37997357 63.41144639 -92.43228585 61.07126514 -92.48828125 58.73046875 C-92.49467117 58.00224411 -92.5010611 57.27401947 -92.50764465 56.52372742 C-92.61847025 52.52914789 -92.61847025 52.52914789 -94.3972168 49.04394531 C-96.51512827 47.66448005 -97.98343849 47.56669427 -100.5 47.5625 C-101.2734375 47.54316406 -102.046875 47.52382812 -102.84375 47.50390625 C-105.10080208 47.82584712 -105.10080208 47.82584712 -106.6027832 49.5690918 C-108.52461356 52.9127341 -108.43545056 55.54670799 -108.51171875 59.390625 C-108.52966995 60.09523865 -108.54762115 60.79985229 -108.56611633 61.52581787 C-108.62011858 63.76715179 -108.65408088 66.00827405 -108.6875 68.25 C-108.72068218 69.77346689 -108.75517269 71.29690589 -108.79101562 72.8203125 C-108.87829418 76.54690369 -108.93844173 80.27254069 -109 84 C-114.61 84 -120.22 84 -126 84 C-126 67.5 -126 51 -126 34 C-120.39 34 -114.78 34 -109 34 C-108.67 35.32 -108.34 36.64 -108 38 C-107.37738281 37.45859375 -107.37738281 37.45859375 -106.7421875 36.90625 C-100.31351659 32.06457317 -93.81593366 31.95787551 -86 33 C-83.28834177 34.02495706 -82.15595464 34.96058345 -80 37 C-79.071875 37.86625 -79.071875 37.86625 -78.125 38.75 C-77.75375 39.1625 -77.3825 39.575 -77 40 C-73.55835531 38.47038014 -70.90848242 36.37270934 -68 34 C-63.10221307 31.55110653 -55.64972632 32.23701151 -50.50390625 33.71875 C-46.34756571 35.66728016 -43.35827503 37.97128015 -41 42 C-40.75 44.8125 -40.75 44.8125 -41 47 C-40.34 47 -39.68 47 -39 47 C-38.835 46.319375 -38.67 45.63875 -38.5 44.9375 C-35.83018335 39.70910907 -30.54099947 35.0778748 -25 33 C-21.6796875 32.62890625 -21.6796875 32.62890625 -17.875 32.5625 C-16.01488281 32.50255859 -16.01488281 32.50255859 -14.1171875 32.44140625 C-10 33 -10 33 0 38 C0 25.46 0 12.92 0 0 Z " fill="#030303" transform="translate(299,142)"/>
<path d="M0 0 C1.37222335 0.80325269 2.73472399 1.62522993 4.0625 2.5 C4.0625 1.18 4.0625 -0.14 4.0625 -1.5 C9.6725 -1.5 15.2825 -1.5 21.0625 -1.5 C21.0625 15.33 21.0625 32.16 21.0625 49.5 C15.4525 49.5 9.8425 49.5 4.0625 49.5 C3.7325 47.85 3.4025 46.2 3.0625 44.5 C2.340625 45.11875 1.61875 45.7375 0.875 46.375 C-5.3258074 51.06005448 -11.38278865 51.27711223 -18.9375 50.5 C-25.95459035 48.52051674 -31.60924735 43.46283711 -35.26171875 37.24609375 C-38.52471584 30.11329661 -39.34554026 22.59425803 -37.2421875 14.984375 C-34.52674673 8.27563899 -29.83216075 1.53227105 -23.2421875 -1.8359375 C-15.50484919 -4.06534007 -7.18231021 -3.5911551 0 0 Z " fill="#030303" transform="translate(92.9375,177.5)"/>
<path d="M0 0 C5.61 0 11.22 0 17 0 C17.33 12.54 17.66 25.08 18 38 C21.96 35.525 21.96 35.525 26 33 C33.72253886 31.53207939 41.46437005 32.55814465 48 37 C51.69215214 40.64430957 54.30800205 44.21967693 54.68115234 49.48828125 C54.6802181 51.09666707 54.64724894 52.70528292 54.5859375 54.3125 C54.57744781 55.16682617 54.56895813 56.02115234 54.56021118 56.90136719 C54.52690167 59.60225177 54.45167343 62.30003422 54.375 65 C54.344871 66.84240448 54.31750036 68.68485624 54.29296875 70.52734375 C54.23230703 75.02035494 54.11488423 79.50675005 54 84 C48.39 84 42.78 84 37 84 C36.96261719 81.82019531 36.92523438 79.64039063 36.88671875 77.39453125 C36.84044752 75.27293115 36.78923454 73.15150358 36.73754883 71.0300293 C36.70438741 69.56073578 36.67632822 68.09131756 36.65356445 66.62182617 C36.61985481 64.50385632 36.56753567 62.38702005 36.51171875 60.26953125 C36.48553467 58.99698486 36.45935059 57.72443848 36.43237305 56.41333008 C35.97584202 52.80928701 35.17461685 50.87782628 33 48 C29.89951072 46.44975536 27.42105782 46.71007985 24 47 C21.24670979 48.79562405 19.47372539 50.05254922 18 53 C17.84479443 55.32273159 17.74980833 57.64959313 17.68359375 59.9765625 C17.66281265 60.66181 17.64203156 61.3470575 17.62062073 62.05307007 C17.55519815 64.24361069 17.49627446 66.43427189 17.4375 68.625 C17.39430782 70.1093875 17.3506933 71.59376278 17.30664062 73.078125 C17.19872862 76.71862818 17.09960219 80.35922195 17 84 C11.39 84 5.78 84 0 84 C0 56.28 0 28.56 0 0 Z " fill="#000000" transform="translate(117,142)"/>
<path d="M0 0 C3 2.5 3 2.5 5 5 C5.33 5.33 5.66 5.66 6 6 C6.45383535 10.22415984 6.4427574 13.92806104 4.8125 17.875 C1.52734697 21.72655873 -0.8872515 22.8586986 -5.9375 23.5 C-10.66447863 23.338853 -12.76610106 21.31277453 -16 18 C-17.85110583 14.29778834 -17.46454795 10.04093083 -17 6 C-12.93298586 -0.97202423 -7.43816764 -2.10814377 0 0 Z " fill="#F8F8F8" transform="translate(91,190)"/>
<path d="M0 0 C3.76456766 2.06682146 7.05213977 4.10427955 9 8 C9.54897239 12.86232692 9.5113954 15.01373745 7.25 19.375 C3.82712823 23.3683504 2.33863337 23.89375926 -2.9375 24.3125 C-6.69788192 24.2074614 -9.03651691 23.44051549 -12 21 C-14.72978679 16.56890244 -14.67181399 12.05499062 -14 7 C-10.62437586 1.21321576 -6.63336797 -0.79600416 0 0 Z " fill="#F9F9F9" transform="translate(290,189)"/>
<path d="M0 0 C3.0625 2.4375 3.0625 2.4375 5 5 C5.33 5.33 5.66 5.66 6 6 C6.55595495 9.77255142 6.81968811 13.4650628 4.98828125 16.89453125 C1.8759135 20.73592208 -0.45788614 21.82542107 -5.3125 22.375 C-10.20301701 21.87765929 -11.57084492 20.42915508 -15 17 C-16.72869779 13.54260443 -16.48966895 9.78024432 -16 6 C-11.95035341 -0.47943454 -7.26674713 -1.06259038 0 0 Z " fill="#050505" transform="translate(335,206)"/>
</svg>
