<?xml version="1.0" standalone="no"?>
<!DOCTYPE svg PUBLIC "-//W3C//DTD SVG 20010904//EN"
 "http://www.w3.org/TR/2001/REC-SVG-20010904/DTD/svg10.dtd">
<svg version="1.0" xmlns="http://www.w3.org/2000/svg"
 width="500.000000pt" height="100.000000pt" viewBox="0 0 900.000000 339.000000"
 preserveAspectRatio="xMidYMid meet">
<metadata>
Created by potrace 1.10, written by Peter Selinger 2001-2011
</metadata>
<g transform="translate(0.000000,339.000000) scale(0.100000,-0.100000)"
fill="#000000" stroke="none">
<path d="M2003 3103 c-10 -4 -13 -243 -13 -1148 0 -1033 2 -1143 16 -1149 20
-8 418 -8 438 0 14 5 16 50 16 403 0 466 -1 463 90 551 118 116 268 120 363 9
72 -83 71 -76 77 -544 l5 -420 219 -3 c153 -2 223 1 232 9 20 17 20 902 0
1004 -37 191 -164 311 -400 380 -90 26 -265 25 -338 -3 -61 -23 -120 -57 -179
-103 -73 -58 -69 -89 -69 490 0 464 -2 520 -16 525 -19 7 -423 7 -441 -1z"/>
<path d="M7412 3098 c-9 -9 -12 -138 -12 -518 0 -279 -3 -509 -6 -513 -3 -3
-26 10 -51 29 -111 85 -211 115 -383 116 -100 1 -138 -3 -192 -20 -223 -70
-377 -228 -460 -475 -18 -53 -21 -87 -22 -227 0 -178 6 -211 71 -350 56 -119
177 -245 293 -304 109 -55 177 -69 331 -64 119 4 142 7 206 33 40 16 100 52
138 82 36 30 70 51 75 48 6 -4 10 -32 10 -65 0 -43 4 -59 16 -64 20 -8 418 -8
438 0 14 6 16 116 16 1149 0 1033 -2 1143 -16 1149 -31 12 -439 7 -452 -6z
m-211 -1300 c101 -32 187 -132 208 -243 39 -213 -102 -385 -315 -385 -172 0
-295 111 -311 283 -14 155 67 292 204 341 49 18 162 20 214 4z"/>
<path d="M650 2210 c-256 -32 -457 -211 -552 -493 -18 -53 -21 -87 -22 -227 0
-178 6 -211 71 -350 56 -119 177 -245 293 -304 109 -55 177 -69 331 -64 119 4
142 7 206 33 40 16 100 52 138 82 36 30 70 51 75 48 6 -4 10 -32 10 -65 0 -43
4 -59 16 -64 20 -8 418 -8 438 0 14 6 16 75 16 684 0 609 -2 678 -16 684 -9 3
-112 6 -229 6 -239 0 -235 1 -235 -73 0 -18 -3 -36 -6 -40 -3 -3 -26 10 -52
29 -123 95 -299 136 -482 114z m340 -413 c152 -53 239 -206 210 -368 -15 -81
-42 -130 -101 -183 -57 -52 -126 -76 -215 -76 -172 0 -295 111 -311 283 -14
155 67 292 204 341 48 17 167 19 213 3z"/>
<path d="M4545 2210 c-90 -16 -172 -55 -250 -119 -27 -23 -54 -40 -60 -38 -5
2 -12 30 -15 63 l-5 59 -219 3 c-153 2 -223 -1 -232 -9 -21 -17 -21 -1341 0
-1358 9 -8 79 -11 232 -9 l219 3 5 430 c5 412 6 432 26 475 48 101 136 142
254 119 69 -13 113 -44 152 -107 23 -37 23 -39 26 -469 3 -342 6 -434 16 -442
9 -8 85 -11 232 -9 l219 3 5 430 5 430 29 58 c33 64 67 90 140 107 105 23 210
-23 259 -113 22 -41 22 -50 25 -469 2 -341 5 -428 16 -437 9 -8 83 -11 232 -9
l219 3 3 510 c2 483 1 513 -17 575 -45 147 -153 248 -323 301 -93 28 -259 30
-333 2 -81 -30 -156 -78 -230 -147 -39 -36 -73 -65 -77 -66 -3 0 -23 22 -42
49 -97 132 -324 212 -511 181z"/>
<path d="M8370 1344 c-63 -35 -107 -80 -138 -139 -22 -42 -26 -63 -27 -135 0
-97 19 -146 83 -213 62 -65 117 -87 219 -87 79 0 93 3 140 30 178 102 216 322
83 474 -19 21 -56 51 -84 67 -46 26 -60 29 -141 29 -78 0 -96 -4 -135 -26z"/>
</g>
</svg>
