<?xml version="1.0" standalone="no"?>
<!DOCTYPE svg PUBLIC "-//W3C//DTD SVG 20010904//EN"
 "http://www.w3.org/TR/2001/REC-SVG-20010904/DTD/svg10.dtd">
<svg version="1.0" xmlns="http://www.w3.org/2000/svg"
 width="300.000000pt" height="300.000000pt" viewBox="0 0 900.000000 900.000000"
 preserveAspectRatio="xMidYMid meet">
<metadata>
Created by potrace 1.10, written by Peter Selinger 2001-2011
</metadata>
<g transform="translate(0.000000,900.000000) scale(0.100000,-0.100000)"
fill="#000000" stroke="none">
<path d="M2626 5784 c-3 -9 -6 -433 -6 -943 0 -708 3 -930 12 -939 15 -15 330
-17 359 -2 18 10 19 25 19 333 0 182 4 338 10 358 14 49 73 115 131 144 100
51 205 19 265 -82 l29 -48 3 -345 c2 -221 7 -349 14 -357 8 -10 56 -13 184
-13 161 0 174 1 184 19 12 24 14 719 1 806 -20 134 -89 226 -216 285 -114 53
-154 62 -271 58 -122 -4 -149 -13 -242 -75 -35 -24 -70 -43 -78 -43 -12 0 -14
61 -14 414 0 228 -3 421 -6 430 -5 14 -31 16 -189 16 -158 0 -184 -2 -189 -16z"/>
<path d="M6717 5794 c-4 -4 -7 -195 -7 -425 0 -230 -4 -420 -9 -423 -5 -3 -26
7 -47 22 -49 33 -94 56 -158 76 -67 21 -262 22 -313 1 -19 -8 -41 -15 -49 -15
-28 0 -141 -76 -192 -128 -29 -30 -66 -80 -84 -110 -29 -51 -32 -53 -45 -37
-7 11 -13 25 -13 33 0 35 -57 126 -104 165 -100 84 -179 110 -324 105 -97 -3
-113 -6 -172 -36 -36 -18 -92 -57 -125 -87 -32 -30 -65 -55 -71 -55 -7 0 -39
26 -71 58 -60 59 -90 77 -180 106 -62 21 -238 18 -293 -5 -41 -17 -116 -64
-145 -90 -27 -24 -43 -12 -47 36 l-3 40 -190 0 -190 0 -3 -554 c-1 -401 1
-558 9 -567 16 -19 337 -20 362 -1 14 11 17 51 19 369 l3 356 30 44 c37 52 84
77 145 77 75 -1 127 -27 171 -87 l24 -34 3 -356 c2 -232 7 -361 14 -369 13
-16 344 -18 368 -3 13 8 15 61 17 360 2 331 3 354 22 393 40 82 143 118 233
82 54 -21 74 -39 102 -90 20 -38 21 -54 24 -390 2 -262 6 -351 15 -357 6 -4
89 -8 184 -8 164 0 173 1 183 21 7 12 10 66 9 135 -1 63 0 116 3 119 2 3 26
-24 52 -60 178 -243 476 -315 721 -175 28 16 60 39 70 50 30 33 45 25 45 -24
0 -25 6 -48 14 -55 9 -8 69 -11 192 -9 l179 3 0 950 0 950 -186 3 c-102 1
-188 -1 -192 -4z m-142 -1093 c99 -56 135 -120 135 -240 0 -86 -9 -115 -57
-178 -29 -38 -109 -78 -173 -88 -72 -10 -168 24 -218 79 -61 66 -66 81 -66
187 -1 96 0 98 36 150 39 57 59 73 123 102 56 24 165 18 220 -12z"/>
<path d="M1615 5036 c-144 -54 -249 -148 -316 -284 -148 -298 -48 -665 223
-820 193 -111 430 -92 605 47 18 14 36 26 40 26 5 0 10 -25 13 -55 l5 -55 176
-3 c140 -2 179 0 188 11 8 11 10 162 9 568 l-3 554 -190 0 -190 0 -3 -42 c-2
-24 -6 -43 -9 -43 -3 0 -35 18 -70 41 -99 62 -164 79 -302 78 -95 0 -127 -5
-176 -23z m389 -322 c63 -22 136 -94 159 -159 51 -147 -26 -306 -169 -347 -76
-23 -88 -22 -167 2 -55 17 -73 29 -111 72 -103 118 -84 312 39 396 79 54 161
66 249 36z"/>
<path d="M7327 4353 c-133 -50 -204 -208 -148 -334 23 -52 90 -118 144 -142
117 -53 281 22 331 151 45 118 -12 254 -136 318 -47 25 -134 28 -191 7z"/>
</g>
</svg>
